PathFileType	4	(X/Y/Z)	s08c0402.trc
DataRate	CameraRate	NumFrames	NumMarkers	Units	OrigDataRate	OrigDataStartFrame	OrigNumFrames
200	200	7	50	mm	200	1500	2000
Frame#	Time	racr			lacr			c7			jug			rlel			rdr			llel			ldr			s2			lic			ric			lasi			rasi			rpsi			lpsi			rgt			lgt			rth1			rth2			rth3			rth4			rlfc			rmfc			rsh1			rsh2			rsh3			rsh4			rlmal			rmmal			rcal			rtoe			rmt5			lth1			lth2			lth4			lth3			llfc			lmfc			llmal			lmmal			lcal			lmt5			lsh1			lsh2			lsh3			lsh4			ltoe			SBIKE			LBIKE			RBIKE			
		X1	Y1	Z1	X2	Y2	Z2	X3	Y3	Z3	X4	Y4	Z4	X5	Y5	Z5	X6	Y6	Z6	X7	Y7	Z7	X8	Y8	Z8	X9	Y9	Z9	X10	Y10	Z10	X11	Y11	Z11	X12	Y12	Z12	X13	Y13	Z13	X14	Y14	Z14	X15	Y15	Z15	X16	Y16	Z16	X17	Y17	Z17	X18	Y18	Z18	X19	Y19	Z19	X20	Y20	Z20	X21	Y21	Z21	X22	Y22	Z22	X23	Y23	Z23	X24	Y24	Z24	X25	Y25	Z25	X26	Y26	Z26	X27	Y27	Z27	X28	Y28	Z28	X29	Y29	Z29	X30	Y30	Z30	X31	Y31	Z31	X32	Y32	Z32	X33	Y33	Z33	X34	Y34	Z34	X35	Y35	Z35	X36	Y36	Z36	X37	Y37	Z37	X38	Y38	Z38	X39	Y39	Z39	X40	Y40	Z40	X41	Y41	Z41	X42	Y42	Z42	X43	Y43	Z43	X44	Y44	Z44	X45	Y45	Z45	X46	Y46	Z46	X47	Y47	Z47	X48	Y48	Z48	X49	Y49	Z49	X50	Y50	Z50	
1500	7.5000	893.371565	1329.862846	-31.716338	859.665325	1362.558413	-365.944129	882.426555	1388.954137	-182.565427	790.224675	1257.726665	-192.257611	720.678738	1157.263326	134.251083	774.816790	938.318872	-40.037229	711.371018	1176.923166	-527.077188	784.503719	927.998771	-462.148023	301.997875	1262.691285	-264.010778	480.092850	1213.674459	-384.171618	422.328750	1259.452924	-80.162495	475.010914	1153.165486	-351.918738	459.805749	1207.173835	-94.189842	333.165446	1300.671522	-215.764418	348.959813	1294.677109	-309.695270	359.722272	1165.736641	-51.537806	365.652062	1107.421849	-422.172617	475.142390	1036.801622	-39.497448	551.287929	989.583787	-39.697469	592.580682	913.389486	-42.381091	577.213719	1015.433708	-45.596181	660.616105	819.139645	-60.144268	649.033552	816.111810	-175.507948	556.001277	753.110797	-33.376046	503.540951	681.262668	-51.191435	424.699479	647.280579	-56.688043	524.854758	662.935051	-82.023718	324.634692	575.179520	-68.522742	349.149214	586.226743	-155.709583	236.307707	585.791553	-112.239936	495.739495	441.321757	-108.863017	403.847159	454.535920	-41.970683	365.594241	976.585544	-435.896352	384.288150	891.484661	-435.583078	420.070373	889.555134	-428.348598	357.021137	806.488213	-433.350820	334.987648	677.746999	-411.615800	332.011065	651.944622	-308.783316	134.790779	309.334664	-406.986283	173.808378	312.375378	-325.681591	78.214101	326.398519	-365.579757	207.523285	153.160088	-420.013086	264.587509	566.974316	-436.123573	247.609007	483.694150	-420.123587	191.008910	416.283236	-417.541991	272.523883	475.709638	-390.062542	291.812696	130.658414	-352.469393	-145.481673	939.082999	-227.577939	10.836882	80.183410	-426.955478	10.839555	80.330111	-28.297731	
1501	7.5050	894.120558	1326.386760	-29.905297	859.299156	1361.744871	-364.113484	882.710191	1387.356865	-180.538859	790.453376	1256.263375	-191.436128	720.351332	1155.795412	136.698859	774.778087	938.326329	-39.804934	710.321703	1177.116786	-525.875591	784.498454	928.221115	-461.530012	302.343314	1265.670788	-264.209642	480.410582	1217.078958	-384.563440	422.359945	1259.688934	-79.920075	474.891628	1156.612831	-352.548027	457.725124	1208.123512	-94.267882	333.469412	1303.060640	-215.443758	349.464769	1298.095234	-309.179385	358.060025	1166.030130	-52.709374	365.887256	1111.312311	-423.551605	472.023077	1036.317215	-39.813195	548.347696	988.679964	-39.836469	588.176496	911.978034	-41.688831	574.041266	1014.383330	-44.742470	656.920127	817.473782	-59.178778	645.482330	814.528775	-174.010901	553.185926	748.215273	-32.890243	503.371601	674.982054	-51.238776	424.827708	639.175668	-57.543311	525.042456	657.550269	-82.262882	326.974979	565.727593	-69.937440	351.042559	577.249005	-157.454722	238.445670	572.604128	-114.119560	504.010874	439.790740	-108.326712	411.045308	449.160134	-41.694927	368.416962	978.616096	-437.080186	388.568394	893.925302	-436.186334	424.443287	892.764285	-429.406395	362.848650	808.449009	-432.952789	341.436337	679.421441	-412.171680	337.659377	653.550562	-309.210010	129.390087	316.988347	-407.508445	168.567904	319.152962	-325.888260	72.722723	334.909526	-365.658929	198.961779	159.405060	-419.981060	267.729420	570.209102	-436.437735	247.829671	487.848862	-420.371614	188.996289	422.401903	-417.849844	272.384644	478.827113	-390.133031	282.728501	135.228109	-352.245207	-145.466929	939.094612	-227.451272	10.819324	80.206822	-426.968249	10.803331	80.282227	-28.297908	
1502	7.5100	894.679435	1323.168436	-29.236663	858.912101	1360.922220	-362.765574	882.970840	1385.912806	-178.873152	790.545217	1255.061982	-191.158774	720.040908	1154.319436	138.821245	774.753522	938.299894	-39.643136	708.870054	1177.322236	-524.900079	784.335997	928.403962	-460.856623	302.314666	1268.486377	-263.943337	480.607387	1220.487944	-384.920761	422.351976	1259.828674	-79.560749	474.723676	1160.030014	-352.978463	455.727157	1208.969328	-94.306261	333.848044	1305.514841	-214.396141	349.909561	1301.247747	-308.574563	356.463715	1166.218983	-53.745684	366.284390	1115.009454	-424.701619	468.917028	1035.853317	-40.103757	544.127837	987.847157	-38.609699	584.396408	910.549159	-42.099350	570.908676	1013.013886	-44.017342	652.738450	815.274420	-58.412221	641.254054	812.527538	-172.675198	549.906944	742.705222	-32.725693	501.579852	668.674605	-52.333891	424.907610	630.284712	-58.858281	523.989909	651.938370	-83.596219	329.603805	555.620279	-71.382462	353.329187	567.355815	-159.042229	241.159764	559.034044	-116.002159	511.629659	437.415338	-107.577278	417.886394	443.095670	-41.546035	371.954941	980.577958	-437.810510	393.794497	896.219370	-436.480030	429.620753	895.844108	-429.994993	369.697119	810.295217	-432.751174	349.031798	681.085300	-412.679874	344.197004	655.283858	-309.414260	124.882919	325.150499	-408.241489	163.963683	326.711310	-326.085210	68.136777	344.104851	-365.973285	190.812242	166.116170	-420.019624	272.098143	573.851061	-437.051017	249.142674	492.319876	-420.667928	188.083960	429.034871	-418.383875	273.243946	482.602514	-390.363165	273.990913	140.284114	-352.254053	-145.395487	939.123134	-227.324410	10.806720	80.226471	-426.958512	10.749636	80.083143	-28.461431	
1503	7.5150	895.167374	1320.258160	-28.849005	858.441331	1359.851085	-361.624988	883.581629	1384.930052	-177.544763	789.881238	1255.122962	-191.164443	720.152119	1152.702220	140.380624	774.743634	938.264632	-39.472741	714.098027	1181.196566	-533.417906	784.153734	928.532036	-460.354382	302.330535	1271.247248	-263.392707	480.651359	1223.863019	-385.263004	422.440942	1259.781348	-79.069501	474.533985	1163.426670	-353.348398	453.819698	1209.701244	-94.308103	334.128355	1308.094783	-215.035039	350.057321	1304.414372	-307.199819	354.889192	1166.447424	-54.565782	366.931273	1118.412045	-425.713626	466.502480	1034.650604	-41.461509	540.483163	985.753907	-38.502317	580.098618	908.908446	-42.227114	567.432444	1011.615376	-43.006112	648.088395	812.892687	-57.689316	636.412015	810.183921	-171.536728	546.251673	736.864432	-32.722615	500.256301	661.661337	-53.379918	424.980560	620.875508	-60.473110	523.239135	646.042586	-84.736923	332.145774	545.163486	-73.089160	355.996964	557.275115	-160.643235	244.116567	545.541241	-118.477525	518.635894	433.985527	-106.149437	423.943746	436.378372	-41.353670	376.134865	982.496527	-438.092751	399.634262	898.634340	-436.462092	435.482582	898.939706	-429.999506	377.297133	812.262952	-432.767626	357.587813	682.748546	-412.926038	351.424364	657.377213	-309.254662	121.316120	333.844311	-409.154479	160.422070	334.584269	-326.584812	64.278595	354.030102	-366.605642	183.227671	173.294813	-420.026606	277.630122	577.522526	-437.549255	251.556183	497.089988	-420.911593	188.211033	436.035678	-418.976174	275.047158	486.461377	-390.349990	265.625832	145.532250	-352.190168	-145.295487	939.176664	-227.261738	10.819380	80.237499	-426.975325	10.812201	80.302422	-28.289314	
1504	7.5200	895.352014	1317.658532	-29.500809	857.986234	1358.836145	-360.867384	883.799146	1383.628717	-176.514035	789.542919	1254.365487	-191.404850	720.009496	1151.255773	141.676849	774.689041	938.206247	-39.313811	712.430448	1181.539184	-532.771330	783.766344	928.579949	-459.710606	302.698931	1274.069351	-262.859410	480.530608	1227.137723	-385.533270	422.633885	1259.667465	-78.468691	474.339896	1166.735525	-353.584101	452.010502	1210.309096	-94.276558	334.218875	1310.239190	-213.760348	350.214360	1307.150075	-305.688952	353.417478	1166.720955	-55.168614	367.870208	1121.452985	-426.571324	463.294999	1033.937889	-41.618483	537.174087	984.453142	-38.156868	575.593771	907.024359	-42.370083	563.940230	1009.879809	-42.178303	642.984829	810.186822	-56.982404	631.316528	807.686387	-170.615515	542.381116	730.837745	-32.817852	498.848544	654.475119	-54.417325	424.989116	611.329997	-62.070758	522.282917	639.820423	-85.973744	334.846852	534.527750	-74.738396	358.907816	546.815693	-161.981720	247.004677	531.398492	-120.651055	524.946444	429.637946	-105.544959	429.801023	428.460017	-41.755650	380.697060	984.398413	-438.033311	406.059983	900.965092	-435.993101	441.792396	902.138693	-429.198325	385.500868	814.189705	-432.761794	366.783904	684.488817	-413.178510	359.355172	659.437604	-308.995709	118.917324	342.954979	-410.087606	151.987709	345.783371	-327.465404	61.841824	364.488227	-367.165411	176.270173	180.740214	-420.111297	284.095588	581.294676	-438.081051	254.967380	501.992335	-421.120536	189.435717	443.262188	-419.603391	277.777119	490.827564	-390.314947	257.757872	151.147953	-352.079709	-145.170761	939.248139	-227.230169	10.830017	80.268930	-426.992730	10.763507	80.127300	-28.488179	
1505	7.5250	895.934065	1315.296037	-28.595394	857.364058	1357.760153	-360.473994	883.900524	1382.547471	-175.983729	789.494677	1253.453169	-191.376227	720.052784	1149.878312	142.724770	774.523108	938.130592	-39.154652	710.482275	1181.960220	-532.107366	783.247384	928.483549	-459.125831	302.592343	1276.332027	-261.998994	480.266891	1230.323176	-385.780431	422.738545	1259.492248	-77.810950	474.197853	1170.007791	-353.716581	450.307509	1210.782844	-94.214742	333.836151	1312.498227	-212.460120	350.351735	1309.429320	-304.394456	351.964559	1167.061357	-55.598956	369.159109	1124.103995	-427.320327	460.207475	1033.149630	-41.911160	533.257814	982.993240	-37.963395	570.880838	905.071481	-42.369844	561.022938	1006.926831	-43.394351	637.675098	807.338501	-56.306865	626.186833	805.092149	-169.715572	538.447940	724.632939	-32.952452	497.390438	647.327699	-55.225506	424.944119	601.819705	-63.324588	521.338897	633.518927	-86.790623	337.827573	523.732141	-75.502430	362.826778	535.204771	-163.058743	250.996785	518.264123	-122.447758	530.955000	424.235738	-105.431012	435.684583	420.361657	-41.858930	385.545373	986.278503	-437.630966	412.790311	903.417873	-435.153479	448.394369	905.388328	-427.735865	394.287853	816.220182	-432.547283	376.434686	686.226094	-413.162591	367.784197	661.463816	-308.705417	117.676744	352.245080	-410.906089	150.474511	354.361462	-328.012622	60.768926	375.566431	-367.738479	169.846730	188.532730	-420.526315	291.329871	584.954305	-437.947465	259.206659	506.964930	-421.101798	191.719370	450.573334	-420.095099	281.300368	495.135715	-389.988456	250.316429	156.690516	-351.990021	-145.053591	939.302706	-227.317437	10.844194	80.389035	-427.005690	10.766334	80.126316	-28.501392	
1506	7.5300	896.219992	1313.340798	-28.686858	856.752025	1356.733061	-360.385765	884.028083	1381.574409	-175.850330	789.055532	1252.955525	-191.722415	720.195951	1148.600231	143.411721	774.235536	938.064772	-38.963470	708.678818	1182.096737	-531.653051	782.724248	928.303985	-458.569442	302.405176	1278.323946	-261.039068	479.866837	1233.423433	-385.976498	422.845479	1259.201060	-77.128705	474.105377	1172.992214	-353.749110	448.718445	1211.112570	-94.125794	334.190302	1314.021123	-210.503241	350.663355	1312.230213	-303.058124	350.504418	1167.339847	-56.031553	371.038702	1126.522489	-428.103948	457.505419	1032.275435	-42.691105	529.370650	981.301245	-37.761167	566.167118	902.954439	-42.742365	557.607778	1004.847694	-42.798060	632.287090	804.467594	-55.812726	621.288905	802.476414	-169.298156	534.238591	718.817706	-32.963595	496.295376	640.102503	-55.791838	424.987743	592.464650	-64.013339	520.347616	627.263842	-87.005012	340.807331	512.681465	-75.872816	365.383623	525.023655	-163.304980	254.333488	505.031889	-123.053419	536.447821	417.744254	-104.959070	440.985727	411.507120	-41.813568	390.736958	988.172415	-436.838170	419.919007	905.979927	-433.767958	455.238596	908.737163	-425.559101	403.401282	818.390324	-431.937242	386.399673	688.065315	-412.945087	376.462649	663.681995	-308.170116	117.490490	361.717492	-411.656112	149.873206	363.129009	-328.322010	61.439246	387.007840	-368.281883	164.049830	196.504510	-420.606749	299.075033	588.835498	-437.988305	265.324360	513.994963	-423.798064	194.935106	457.916193	-420.417569	286.610877	501.541101	-392.104826	243.238594	162.137220	-351.880430	-144.939447	939.358168	-227.338133	10.857497	80.437281	-427.033318	10.854811	80.361882	-28.338077	
